<?xml version="1.0" encoding="utf-8"?>
<!-- Generator: Adobe Illustrator 16.0.4, SVG Export Plug-In . SVG Version: 6.00 Build 0)  -->
<!DOCTYPE svg PUBLIC "-//W3C//DTD SVG 1.1//EN" "http://www.w3.org/Graphics/SVG/1.1/DTD/svg11.dtd">
<svg version="1.1" id="Layer_1" xmlns="http://www.w3.org/2000/svg" xmlns:xlink="http://www.w3.org/1999/xlink" x="0px" y="0px"
	 width="150px" height="200px" viewBox="0 0 150 200" enable-background="new 0 0 150 200" xml:space="preserve">
<g>
	<g>
		<g>
			<polyline fill="none" stroke="#000000" stroke-width="2" stroke-miterlimit="10" points="57.333,119.5 57.333,120.5 
				58.333,120.5 			"/>
			
				<line fill="none" stroke="#000000" stroke-width="2" stroke-miterlimit="10" stroke-dasharray="2,3" x1="61.5" y1="120.5" x2="124.5" y2="120.5"/>
			<polyline fill="none" stroke="#000000" stroke-width="2" stroke-miterlimit="10" points="126.417,120.5 127.417,120.5 
				127.417,119.5 			"/>
			
				<line fill="none" stroke="#000000" stroke-width="2" stroke-miterlimit="10" stroke-dasharray="2,3" x1="127.5" y1="116.5" x2="127.5" y2="37.5"/>
			<polyline fill="none" stroke="#000000" stroke-width="2" stroke-miterlimit="10" points="127.417,35.5 127.417,34.5 
				126.417,34.5 			"/>
			
				<line fill="none" stroke="#000000" stroke-width="2" stroke-miterlimit="10" stroke-dasharray="2,3" x1="123.5" y1="34.5" x2="59.5" y2="34.5"/>
			<polyline fill="none" stroke="#000000" stroke-width="2" stroke-miterlimit="10" points="58.333,34.5 57.333,34.5 57.333,35.5 
							"/>
			
				<line fill="none" stroke="#000000" stroke-width="2" stroke-miterlimit="10" stroke-dasharray="2,3" x1="57.5" y1="38.5" x2="57.5" y2="117.5"/>
		</g>
	</g>
	<g>
		<g>
			<line fill="none" stroke="#000000" stroke-width="2" stroke-miterlimit="10" x1="57.5" y1="34.5" x2="56.5" y2="34.5"/>
			
				<line fill="none" stroke="#000000" stroke-width="2" stroke-miterlimit="10" stroke-dasharray="2,3" x1="53.5" y1="34.5" x2="25.5" y2="34.5"/>
			<polyline fill="none" stroke="#000000" stroke-width="2" stroke-miterlimit="10" points="23.583,34.5 22.583,34.5 22.583,35.5 
							"/>
			
				<line fill="none" stroke="#000000" stroke-width="2" stroke-miterlimit="10" stroke-dasharray="2,3" x1="22.5" y1="38.5" x2="22.5" y2="117.5"/>
			<polyline fill="none" stroke="#000000" stroke-width="2" stroke-miterlimit="10" points="22.583,119.5 22.583,120.5 
				23.583,120.5 			"/>
			
				<line fill="none" stroke="#000000" stroke-width="2" stroke-miterlimit="10" stroke-dasharray="2,3" x1="26.5" y1="120.5" x2="54.5" y2="120.5"/>
			<line fill="none" stroke="#000000" stroke-width="2" stroke-miterlimit="10" x1="56.5" y1="120.5" x2="57.5" y2="120.5"/>
		</g>
	</g>
</g>
</svg>
